<?xml version="1.0" encoding="utf-8"?>
<!-- Generator: Adobe Illustrator 15.1.0, SVG Export Plug-In . SVG Version: 6.00 Build 0)  -->
<!DOCTYPE svg PUBLIC "-//W3C//DTD SVG 1.1//EN" "http://www.w3.org/Graphics/SVG/1.1/DTD/svg11.dtd">
<svg version="1.1" id="Layer_1" xmlns:sketch="http://www.bohemiancoding.com/sketch/ns"
	 xmlns="http://www.w3.org/2000/svg" xmlns:xlink="http://www.w3.org/1999/xlink" x="0px" y="0px" width="49px" height="60px"
	 viewBox="1 1 49 60" enable-background="new 1 1 49 60" xml:space="preserve">
<path id="Path-11" sketch:type="MSShapeGroup" fill="none" stroke="#29FF82" d="M4.906,8.516L5,53.484L4.963,35.5
	c0,0,0.537-10.571,9.425-10.571c10.684,0,10.684,9.618,10.684,10.684v10.685c0,1.076,0,10.684,10.684,10.684
	C46.439,56.98,46,46.456,46,46.456V32.748"/>
<g id="Oval-3-copy_2_" sketch:type="MSShapeGroup">
	<path fill="#29FF82" d="M5,2c1.654,0,3,1.346,3,3S6.654,8,5,8S2,6.654,2,5S3.346,2,5,2 M5,1C2.79,1,1,2.792,1,5s1.79,4,4,4
		s4-1.792,4-4S7.21,1,5,1L5,1z"/>
</g>
<g id="Oval-3-copy_1_" sketch:type="MSShapeGroup">
	<path fill="#29FF82" d="M46,26c1.654,0,3,1.346,3,3s-1.346,3-3,3s-3-1.346-3-3S44.346,26,46,26 M46,25c-2.21,0-4,1.791-4,4
		s1.79,4,4,4s4-1.791,4-4S48.21,25,46,25L46,25z"/>
</g>
<g id="Oval-3-copy_3_" sketch:type="MSShapeGroup">
	<path fill="#29FF82" d="M5,54c1.654,0,3,1.346,3,3s-1.346,3-3,3s-3-1.346-3-3S3.346,54,5,54 M5,53c-2.21,0-4,1.791-4,4s1.79,4,4,4
		s4-1.791,4-4S7.21,53,5,53L5,53z"/>
</g>
</svg>
